<?xml version="1.0"?>
<svg xmlns="http://www.w3.org/2000/svg" xmlns:xlink="http://www.w3.org/1999/xlink" version="1.1" id="Layer_1" x="0px" y="0px" viewBox="0 0 512 512" style="enable-background:new 0 0 512 512;" xml:space="preserve" width="512px" height="512px" class=""><g transform="matrix(1 0 0 1 0 0)"><path style="fill:#EFCA83" d="M144.255,512c-5.086,0-9.223-4.138-9.223-9.223v-66.733c0-0.881-0.421-1.722-1.124-2.251  c-27.482-20.609-43.887-53.423-43.887-87.772V200.438c0-16.988,13.491-31.18,30.074-31.635c0.282-0.008,0.551-0.011,0.818-0.011  c8.143,0,15.825,3.113,21.632,8.764c6.04,5.876,9.367,13.754,9.367,22.18v56.264c0,1.552,1.261,2.813,2.813,2.813  s2.813-1.261,2.813-2.813V31.646c0-16.988,13.491-31.18,30.073-31.635C187.897,0.003,188.173,0,188.445,0  c8.135,0,15.811,3.113,21.618,8.764c6.038,5.876,9.366,13.754,9.366,22.18v191.297c0,1.552,1.261,2.813,2.813,2.813  c1.552,0,2.813-1.261,2.813-2.813V120.966c0-8.426,3.326-16.304,9.368-22.181c5.806-5.651,13.465-8.764,21.564-8.764  c0.296,0,0.591,0.003,0.888,0.012c16.579,0.455,30.071,14.647,30.071,31.635v100.573c0,1.552,1.261,2.813,2.813,2.813  s2.813-1.261,2.813-2.813v-78.769c0-8.426,3.326-16.304,9.368-22.181c5.81-5.651,13.461-8.765,21.545-8.765  c0.304,0,0.605,0.005,0.911,0.014c16.574,0.455,30.066,14.647,30.066,31.635v78.067c0,1.552,1.261,2.813,2.813,2.813  s2.813-1.261,2.813-2.813v-56.264c0-8.426,3.326-16.304,9.368-22.181c5.809-5.652,13.453-8.765,21.525-8.765  c0.311,0,0.623,0.005,0.936,0.014c16.569,0.455,30.061,14.647,30.061,31.635v179.342c0,34.349-16.405,67.162-43.886,87.772  c-0.704,0.529-1.125,1.369-1.125,2.251v66.733c0,5.086-4.138,9.223-9.223,9.223L144.255,512L144.255,512z" data-original="#EFCA83" class="" data-old_color="#CDCDCD"/><g>
	<path style="fill:#E2AC76" d="M169.076,502.777v-66.733c0-0.881-0.421-1.722-1.124-2.251   c-27.482-20.609-43.887-53.423-43.887-87.772V200.438c0-10.964,5.624-20.756,14.066-26.45c-5.051-3.376-10.998-5.197-17.218-5.197   c-0.266,0-0.536,0.003-0.818,0.011c-16.582,0.455-30.073,14.647-30.073,31.635v145.584c0,34.349,16.405,67.162,43.887,87.772   c0.703,0.529,1.124,1.369,1.124,2.251v66.733c0,5.086,4.138,9.223,9.223,9.223h34.043C173.213,512,169.076,507.862,169.076,502.777   z" data-original="#E2AC76" class="active-path" data-old_color="#FCFCFC"/>
	<path style="fill:#E2AC76" d="M160.992,253.393c16.894,0,30.59-13.696,30.59-30.59V31.646c0-10.964,5.624-20.757,14.066-26.45   C200.598,1.821,194.656,0,188.443,0c-0.272,0-0.548,0.003-0.833,0.011c-16.581,0.455-30.072,14.647-30.072,31.635v221.747H160.992z   " data-original="#E2AC76" class="active-path" data-old_color="#FCFCFC"/>
	<path style="fill:#E2AC76" d="M226.781,218.657c16.894,0,30.59-13.696,30.59-30.59v-69.419c0-10.238,4.906-19.453,12.43-25.264   c-3.918-2.027-8.301-3.225-12.926-3.352c-0.297-0.009-0.592-0.012-0.888-0.012c-8.099,0-15.757,3.113-21.564,8.764   c-6.042,5.878-9.368,13.757-9.368,22.183v97.691H226.781z" data-original="#E2AC76" class="active-path" data-old_color="#FCFCFC"/>
	<path style="fill:#E2AC76" d="M292.572,218.657c16.894,0,30.59-13.696,30.59-30.59v-48.963c0-9.779,4.481-18.617,11.438-24.455   c-3.188-1.27-6.622-2.012-10.203-2.11c-0.305-0.009-0.608-0.014-0.911-0.014c-8.612,0-16.732,3.532-22.659,9.904   c-5.445,5.851-8.255,13.682-8.255,21.675V218.657L292.572,218.657z" data-original="#E2AC76" class="active-path" data-old_color="#FCFCFC"/>
	<path style="fill:#E2AC76" d="M361.125,218.657c16.894,0,30.59-13.696,30.59-30.59v-26.557c0-9.579,4.294-18.263,11.01-24.101   c-3.357-1.423-6.998-2.261-10.806-2.365c-0.313-0.009-0.626-0.014-0.936-0.014c-8.073,0-15.717,3.113-21.525,8.765   c-6.042,5.877-9.368,13.755-9.368,22.181v52.68H361.125z" data-original="#E2AC76" class="active-path" data-old_color="#FCFCFC"/>
</g></g> </svg>
